####
#
#	OBJ File Generated by LightWave3D
#	LightWave3D OBJ Export v2.3
#
####
o cube.obj
mtllib cube.mtl
g default
v 0.5 0.5 -0.5
v 0.5 -0.5 -0.5
v -0.5 0.5 -0.5
v -0.5 -0.5 -0.5
v 0.5 0.5 0.5
v 0.5 -0.5 0.5
v -0.5 0.5 0.5
v -0.5 -0.5 0.5
vt -0.00666666 -0.000833323
vt 0.00333334 1.0025
vt 0.996667 -0.000833323
vt 1.00667 1.0025
vn -1 0 -0
vn -1 0 -0
vn -1 0 -0
vn -1 0 -0
vn -1 0 -0
vn -1 0 -0
vn 0 -1 -0
vn 0 -1 -0
vn 0 -1 -0
vn 0 -1 -0
vn 0 -1 -0
vn 0 -1 -0
vn 0 0 -1
vn 0 0 -1
vn 0 0 -1
vn 0 -0 -1
vn 0 -0 -1
vn 0 -0 -1
vn 0 1 -0
vn 0 1 -0
vn 0 1 -0
vn 0 1 0
vn 0 1 0
vn 0 1 0
vn 0 0 1
vn 0 0 1
vn 0 0 1
vn 0 0 1
vn 0 0 1
vn 0 0 1
vn 1 0 -0
vn 1 0 -0
vn 1 0 -0
vn 1 -0 -0
vn 1 -0 -0
vn 1 -0 -0
g Default
usemtl Default
s off
f 7/2/1 4/3/2 8/1/3
f 7/2/4 3/4/5 4/3/6
f 4/2/7 6/3/8 8/1/9
f 4/2/10 2/4/11 6/3/12
f 3/2/13 2/3/14 4/1/15
f 3/2/16 1/4/17 2/3/18
f 3/2/19 7/1/20 5/3/21
f 1/4/22 3/2/23 5/3/24
f 7/2/25 8/1/26 6/3/27
f 5/4/28 7/2/29 6/3/30
f 2/3/31 5/2/32 6/1/33
f 1/4/34 5/2/35 2/3/36
